<?xml version="1.0" encoding="utf-8"?>
<!-- Generator: Adobe Illustrator 16.0.0, SVG Export Plug-In . SVG Version: 6.00 Build 0)  -->
<!DOCTYPE svg PUBLIC "-//W3C//DTD SVG 1.1//EN" "http://www.w3.org/Graphics/SVG/1.1/DTD/svg11.dtd">
<svg version="1.1" id="Layer01" xmlns="http://www.w3.org/2000/svg" xmlns:xlink="http://www.w3.org/1999/xlink" x="0px" y="0px"
	 width="351.611px" height="157.497px" viewBox="0 0 351.611 157.497" enable-background="new 0 0 351.611 157.497"
	 xml:space="preserve">
<g>
	<g>
		<path fill="#0061AF" d="M261.409,41.828c1.356,1.164,4.406,4.033,6.068,5.43l3.299-3.203l-6.205-5.296L261.409,41.828z"/>
	</g>
	<g>
		<path fill="#0061AF" d="M263.237,48.276l-3.025,2.938c1.355,1.164,4.406,4.032,6.068,5.43l3.243-3.149L263.237,48.276z"/>
	</g>
	<g>
		<path fill="#0061AF" d="M178.086,55.012h14.535v-5.116h-16.132c0.211-2.376,0.37-4.652,0.478-6.828h13.738v-4.963h-32.747v4.963
			h13.419c0,2.586-0.216,4.862-0.638,6.828h-14.857v5.116h13.738c-1.334,4.777-6.201,9.295-13.738,12.729l3.636,4.645
			c7.124-3.604,12.2-8.586,14.417-14.115c3.139,6.611,8.702,11.074,15.139,13.786l3.548-5.237
			C186.158,64.642,180.789,60.845,178.086,55.012z"/>
	</g>
	<polygon fill="#0061AF" points="232.21,45.244 233.453,43.243 233.085,43.243 227.874,43.243 226.616,45.244 222.624,45.244 
		221.253,43.243 216.084,43.243 217.194,45.244 212.56,45.244 212.56,48.809 237.159,48.809 237.159,45.244 	"/>
	<g>
		<path fill="#0061AF" d="M208.408,63.701v-4.11v-0.699h4.63v-4.189h-4.63v-3.565h3.515v-4.189h-6.869
			c0.529-0.931,0.956-1.861,1.279-2.792h6.067v-4.189h-4.634c0.107-0.31,0.215-0.722,0.323-1.24
			c0.196-0.867,0.394-1.535,0.593-2.045h-4.789c-0.785,3.878-2.138,7.412-4.111,10.576c0.026,0.083,0.046,0.154,0.07,0.237
			l2.188,4.778c0.047-0.073,0.087-0.124,0.137-0.205c0.318-0.411,0.534-0.721,0.642-0.931h0.956v3.565h-3.833v4.189h3.833v1.51v4.85
			v3.012c0,0.098,0.021,0.19,0.028,0.286c0.145,2.044,1.771,3.663,3.817,3.793l0.813,0.043h3.113l-0.005-4.06
			c0-0.021,0.005-0.041,0.005-0.063h-1.062c-1.146,0-2.076-0.93-2.076-2.076v-1.976V63.701z"/>
	</g>
	<g>
		<path fill="#0061AF" d="M213.667,54.423c0,0.043,0.012,0.083,0.013,0.126v-0.251C213.679,54.34,213.667,54.38,213.667,54.423z"/>
		<path fill="#0061AF" d="M233.083,66.141c-0.038,0.221-0.025,0.442-0.075,0.662c-0.216,0.829-0.638,1.241-1.279,1.241h-0.478
			c-0.745,0-1.12-0.467-1.12-1.397v-2.792h5.271V50.36H217.73c-2.201,0-3.982,1.753-4.051,3.938v0.251v9.306h4.311
			c-0.329,1.677-1.816,2.958-4.311,3.896v2.908v0.67c0,0.41-0.037,0.858,0.016,1.251c2.312-0.439,4.788-1.749,6.498-3.361
			c0.755-0.71,1.397-1.54,1.867-2.466c0.118-0.232,1.01-2.898,0.883-2.898h2.398v4.189c0,2.583,1.49,3.879,4.471,3.879
			c0,0,2.388,0,2.397,0c3.674,0,4.876-2.63,5.472-5.782H233.083z M230.613,53.928v1.551h-8.977h-3.164v-1.551h3.271H230.613z
			 M218.473,60.442v-1.705h12.141v1.705H218.473z"/>
	</g>
	<g>
		<path fill="#0061AF" d="M256.935,52.998l-1.758,1.551v-3.102h4.953v-4.81h-4.953v-1.394v-3.106v-0.404h4.139v-4.21h-13.135v4.21
			h4.044v0.872v2.638v1.394h-5.431v4.81h5.112c-1.27,3.388-3.121,6.469-5.542,9.245l2.059,5.477c1.447-1.932,2.719-3.989,3.802-6.19
			v12.097h4.952V56.567c0.212,0.205,0.586,0.621,1.12,1.241c0.849,0.93,1.542,1.704,2.076,2.325l3.195-2.945
			C260.394,55.943,258.852,54.549,256.935,52.998z"/>
	</g>
	<g>
		<path fill="#0061AF" d="M276.745,58.912v-0.794V36.091h-3.141c-1.267,0-2.295,1.027-2.295,2.295v20.195v0.331h-11.098v5.116h8.672
			h2.426v8.048h5.436v-8.048h3.768v-5.116H276.745z"/>
	</g>
	<path fill="#0061AF" d="M227.96,38.727v-2.635h-3.917c-1.228,0-2.221,0.966-2.283,2.178c-0.002,0.04-0.012,0.077-0.012,0.117
		c0,0.041,0.01,0.078,0.012,0.118v0.223h-8.239v3.722h20.509h2.174v-3.722H227.96z"/>
	<g>
		<path fill="#0061AF" d="M293.635,38.386c0,0.042,0.011,0.081,0.013,0.122v-0.243C293.646,38.306,293.635,38.345,293.635,38.386z"
			/>
		<path fill="#0061AF" d="M301.791,47.258v-4.81h-3.195v-6.357h-2.665c-1.227,0-2.219,0.964-2.283,2.174v0.243v3.94h-4.315v4.81
			h4.315v6.514c-0.534,0.104-1.279,0.261-2.239,0.467c-1.063,0.209-1.865,0.362-2.395,0.463v5.196
			c1.382-0.416,3.247-0.697,4.634-1.007v6.67c0,1.14-0.431,1.76-1.279,1.861c-0.215,0-0.586,0-1.119,0
			c-0.697-0.082-1.213-0.125-1.625-0.142v4.674c1.798,0.02,4.407-0.091,5.621-0.343c2.235-0.311,3.351-1.708,3.351-4.189v-9.615
			c0.96-0.31,2.024-0.568,3.195-0.777v-4.79c-0.326,0.022-0.786,0.111-1.438,0.291c-0.744,0.104-1.33,0.209-1.757,0.31v-5.583
			H301.791z"/>
	</g>
	<path fill="#0061AF" d="M318.247,63.854c2.872-2.792,5.111-5.995,6.708-9.615V49.74h-8.307v-4.032h9.264v-4.5h-9.264v-5.116h-3.127
		l-0.008-0.001c-0.003,0-0.006,0.001-0.006,0.001c-1.267,0.004-2.289,1.029-2.289,2.294v2.822h-8.467v4.5h8.467v4.032h-8.467v4.652
		h8.942h7.189c-0.956,2.175-2.661,4.346-5.111,6.518c-1.493-1.262-3.641-3.35-4.725-4.954h-6.176
		c1.789,3.044,4.575,5.842,6.59,7.898c-2.28,1.292-5.005,2.452-8.13,3.495l2.011,4.835c3.894-1.537,7.426-3.176,10.589-4.918
		c2.98,1.865,6.231,3.416,9.745,4.656l2.58-4.813C323.259,66.206,320.569,65.131,318.247,63.854z"/>
</g>
<g>
	<path fill="#0061AF" d="M42.296,128.001l-7.758-28.44l3.354-3.354c-1.022-1.784-1.932-3.639-2.715-5.561l-7.11,7.109l10.423,42.323
		l18.978-17.906l2.371-2.371l55.505-55.505l1.929-1.929l0.271-0.27l5.565-5.554c4.777-4.767,9.555-9.531,14.297-14.335l3.608-3.655
		l-43.597-9.078l-6.86,6.868c2.102,0.436,3.831,0.89,6.512,1.757l2.263-2.263l29.564,6.617L42.296,128.001z"/>
	<path fill="#BE1E2D" d="M114.097,94.453l-20.049,20.119c4.139-2.104,8.112-4.906,11.669-8.483
		C109.251,102.535,112.019,98.574,114.097,94.453z"/>
	<path fill="#92278F" d="M116.875,84.288l-33.159,33.345c5.971-4.262,12.277-9.192,18.156-15.104
		C107.751,96.617,112.646,90.283,116.875,84.288z"/>
	<path fill="#662D91" d="M117.144,75.92c0.012-0.104,0.159-0.067,0.17-0.171l-41.947,42.182c0.066-0.007,0.042-0.102,0.108-0.109
		c7.372-5.212,15.222-11.678,22.793-19.291C105.723,91.034,112.011,83.22,117.144,75.92z"/>
	<path fill="#0061AF" d="M116.175,69.169L68.57,117.04c8.101-6.171,17.3-13.333,25.97-22.051
		C103.101,86.381,110.09,77.216,116.175,69.169z"/>
	<g>
		<defs>
			<path id="SVGID_1_" d="M79.044,41.023c-20.849-0.298-37.991,16.362-38.289,37.211c-0.176,12.322,5.577,23.334,14.614,30.347
				c0.029,0.022,0.062,0.04,0.091,0.063l52.741-53.113C101.404,46.857,90.92,41.192,79.044,41.023z"/>
		</defs>
		<clipPath id="SVGID_2_">
			<use xlink:href="#SVGID_1_"  overflow="visible"/>
		</clipPath>
		<g clip-path="url(#SVGID_2_)">
			<g>
				<radialGradient id="SVGID_3_" cx="63.7144" cy="57.1333" r="45.0316" gradientUnits="userSpaceOnUse">
					<stop  offset="0.0598" style="stop-color:#46B5E8"/>
					<stop  offset="0.1978" style="stop-color:#30A3DC"/>
					<stop  offset="0.4897" style="stop-color:#007AC1"/>
					<stop  offset="0.6421" style="stop-color:#0067B4"/>
				</radialGradient>
				<path fill="url(#SVGID_3_)" d="M78.099,40.433c-20.902,0-37.847,16.945-37.847,37.847c0,18.056,12.653,33.132,29.569,36.91
					c2.667,0.596,5.43,0.937,8.277,0.937c16.883,0,31.172-11.061,36.047-26.326c1.16-3.635,1.8-7.501,1.8-11.521
					C115.945,57.378,99,40.433,78.099,40.433z"/>
				<g>
					<linearGradient id="SVGID_4_" gradientUnits="userSpaceOnUse" x1="40.2544" y1="76.6582" x2="88.6519" y2="76.6582">
						<stop  offset="0" style="stop-color:#D7DF23"/>
						<stop  offset="1" style="stop-color:#2BB673"/>
					</linearGradient>
					<path fill="url(#SVGID_4_)" d="M48.551,82.344c1.521-0.038,5.871-0.578,5.871-0.578s3.526,3.31,4.72,4.72
						c1.194,1.411,3.038,0.868,6.67,0.491c3.632-0.375,2.716,0.215,5.482,2.98c2.767,2.768,2.604,2.279,6.673,6.022
						c4.069,3.743,2.993,2.341,2.993,2.341l3.151,3.804c0,0,3.621,1.017,4.272-0.61c0.65-1.628,0,0-0.699-1.156
						c-0.7-1.156-3.207-3.401-2.493-6.268c0.714-2.867-1.854-4.133-3.26-8.468c-1.407-4.336-0.059-3.313-0.872-8.684
						c-0.814-5.371-1.628-4.883-3.754-7.64c-2.126-2.756-1.942-2.94-3.245-1.312c-1.302,1.627-2.278,3.581-6.673,2.767
						c-4.394-0.813-8.463-3.58-10.775-3.289c-2.313,0.291-3.709,3.777-6.021,6.021s-4.588,6.311-4.588,6.311l-1.598-2.672
						c0,0-0.219-1.904-0.717-4.118c-0.499-2.213,2.77-3.797,3.844-7.788c1.074-3.99,0,0,1.496-2.084
						c1.497-2.083-0.846-3.45-0.881-4.461c-0.036-1.012,3.015-7.794,3.015-7.794s-1.785,3.163-2.469,3.451
						c-6.809,8.37-9.497,18.975-8.066,29.11l2.905-2.991C43.532,80.45,47.029,82.381,48.551,82.344z"/>
					<linearGradient id="SVGID_5_" gradientUnits="userSpaceOnUse" x1="71.3135" y1="58.3203" x2="115.7568" y2="58.3203">
						<stop  offset="0" style="stop-color:#D7DF23"/>
						<stop  offset="1" style="stop-color:#2BB673"/>
					</linearGradient>
					<path fill="url(#SVGID_5_)" d="M71.313,40.96c1.199,0.138,7.165,1.033,7.925,5.248c0.845,4.688,1.342,9.075,5.487,11.764
						c4.146,2.689,7.988,5.032,11.112,1.908c3.125-3.124,2.262-3.563,6.192-1.96s5.012,4.103,6.831,7.166
						c1.819,3.063,2.313,5.563,2.718,7.731c0.403,2.168,0.985,1.982,3.076,3.077c0.37,0.193,0.74,0.314,1.102,0.387
						c-0.442-9.04-4.114-17.952-11.019-24.856C95.647,42.332,83.076,38.846,71.313,40.96z"/>
				</g>
			</g>
			<g>
				<linearGradient id="SVGID_6_" gradientUnits="userSpaceOnUse" x1="70.6836" y1="58.6758" x2="115.7568" y2="58.6758">
					<stop  offset="0.4516" style="stop-color:#ABE1FA"/>
					<stop  offset="1" style="stop-color:#1C75BC"/>
				</linearGradient>
				<path fill="url(#SVGID_6_)" d="M70.684,41.183c1.199,0.138,7.795,1.276,8.555,5.491c0.845,4.688,1.342,9.075,5.487,11.764
					c4.146,2.689,7.988,5.032,11.112,1.908c3.125-3.125,2.262-3.563,6.192-1.96c3.931,1.603,5.012,4.103,6.831,7.166
					c1.819,3.063,2.313,5.562,2.718,7.73c0.403,2.168,0.985,1.982,3.076,3.077c0.37,0.194,0.74,0.314,1.102,0.387
					c-0.442-9.04-4.114-17.952-11.019-24.856C95.647,42.798,82.446,39.069,70.684,41.183z"/>
				<radialGradient id="SVGID_7_" cx="69.3311" cy="60.561" r="41.6512" gradientUnits="userSpaceOnUse">
					<stop  offset="0.4516" style="stop-color:#ABE1FA"/>
					<stop  offset="1" style="stop-color:#1C75BC"/>
				</radialGradient>
				<path fill="url(#SVGID_7_)" d="M48.551,82.344c1.521-0.038,5.871-0.578,5.871-0.578s3.526,3.31,4.72,4.72
					c1.194,1.411,3.038,0.868,6.67,0.491c3.632-0.375,2.716,0.215,5.482,2.98c2.767,2.768,2.604,2.279,6.673,6.022
					c4.069,3.743,2.993,2.341,2.993,2.341l3.151,3.804c0,0,3.621,1.017,4.272-0.61c0.65-1.628,0,0-0.699-1.156
					c-0.7-1.156-3.207-3.401-2.493-6.268c0.714-2.867-1.854-4.133-3.26-8.468c-1.407-4.336-0.059-3.313-0.872-8.684
					c-0.814-5.371-1.628-4.883-3.754-7.64c-2.126-2.756-1.942-2.94-3.245-1.312c-1.302,1.627-2.278,3.581-6.673,2.767
					c-4.394-0.813-8.463-3.58-10.775-3.289c-2.313,0.291-3.709,3.777-6.021,6.021s-4.588,6.311-4.588,6.311l-1.598-2.672
					c0,0-0.219-1.904-0.717-4.118c-0.499-2.213,2.77-3.797,3.844-7.788c1.074-3.99,0,0,1.496-2.084
					c1.497-2.083-0.846-3.45-0.881-4.461c-0.036-1.012,2.788-7.295,2.788-7.295s-1.559,2.665-2.242,2.953
					c-6.809,8.37-9.497,18.975-8.066,29.11l2.905-2.991C43.532,80.45,47.029,82.381,48.551,82.344z"/>
				<radialGradient id="SVGID_8_" cx="69.3311" cy="60.8481" r="41.1098" gradientUnits="userSpaceOnUse">
					<stop  offset="0.4516" style="stop-color:#ABE1FA"/>
					<stop  offset="1" style="stop-color:#1C75BC"/>
				</radialGradient>
				<path fill="url(#SVGID_8_)" d="M48.551,81.969c1.521-0.038,5.871-0.578,5.871-0.578s3.526,3.31,4.72,4.72
					c1.194,1.41,3.038,0.867,6.67,0.491s2.716,0.214,5.482,2.98s2.604,2.278,6.673,6.022c4.069,3.743,2.993,2.342,2.993,2.342
					l3.151,3.803c0,0,3.621,1.017,4.272-0.611c0.65-1.627,0,0-0.699-1.156c-0.7-1.155-3.207-3.4-2.493-6.268
					s-1.854-4.132-3.26-8.468c-1.407-4.336-0.059-3.313-0.872-8.684c-0.814-5.371-1.628-4.883-3.754-7.64
					c-2.126-2.756-1.942-2.939-3.245-1.312c-1.302,1.627-2.278,3.581-6.673,2.767c-4.394-0.813-8.463-3.58-10.775-3.289
					s-3.709,3.777-6.021,6.021c-2.313,2.245-4.588,6.311-4.588,6.311l-1.598-2.673c0,0-0.219-1.904-0.717-4.117
					c-0.499-2.214,2.77-3.797,3.844-7.787s0,0,1.496-2.084c1.497-2.084-0.846-3.45-0.881-4.462
					c-0.036-1.012,2.902-6.489,2.902-6.489s-1.673,1.858-2.356,2.146c-6.809,8.37-9.497,18.975-8.066,29.11l2.905-2.991
					C43.532,80.075,47.029,82.006,48.551,81.969z"/>
				<radialGradient id="SVGID_9_" cx="69.3311" cy="62.5913" r="39.9941" gradientUnits="userSpaceOnUse">
					<stop  offset="0.4516" style="stop-color:#ABE1FA"/>
					<stop  offset="1" style="stop-color:#1C75BC"/>
				</radialGradient>
				<path fill="url(#SVGID_9_)" d="M71.313,40.96c1.199,0.138,7.165,1.033,7.925,5.248c0.845,4.688,1.342,9.075,5.487,11.764
					c4.146,2.689,7.988,5.032,11.112,1.908c3.125-3.124,2.262-3.563,6.192-1.96s5.012,4.103,6.831,7.166
					c1.819,3.063,2.313,5.563,2.718,7.731c0.403,2.168,0.985,1.982,3.076,3.077c0.37,0.193,0.74,0.314,1.102,0.387
					c-0.442-9.04-4.114-17.952-11.019-24.856C95.647,42.332,83.076,38.846,71.313,40.96z"/>
			</g>
			
				<linearGradient id="SVGID_10_" gradientUnits="userSpaceOnUse" x1="41.5625" y1="26.229" x2="60.646" y2="47.5844" gradientTransform="matrix(0.9616 -0.0743 -0.0743 0.8561 14.4703 28.5677)">
				<stop  offset="0.2745" style="stop-color:#FFFFFF"/>
				<stop  offset="1" style="stop-color:#FFFFFF;stop-opacity:0"/>
			</linearGradient>
			<path fill="url(#SVGID_10_)" d="M98.574,57.045c0.046,2.271-1.745,4.434-3.454,6.499c-1.855,2.243-4,4.308-6.221,6.282
				c-3.452,3.069-7.319,5.786-11.489,7.939c-5.338,2.756-11.088,4.821-16.878,5.956c-3.075,0.603-6.458,1.359-9.387,0.751
				c-3.491-0.725-4.36-3.84-4.882-6.735c-0.581-3.225-0.377-6.667,0.612-10.046c2.188-7.472,8.107-14.312,15.872-18.321
				c10.229-5.281,22.372-4.949,30.207,0.832c1.985,1.465,4.262,2.971,5.25,5.209C98.448,55.961,98.563,56.506,98.574,57.045z"/>
		</g>
	</g>
</g>
<g>
	<path fill="#0061AF" d="M163.988,107.227h-9.77c0-2.771,0.088-3.828,0.616-4.355c0.528-0.617,1.584-0.705,3.74-0.705h5.281
		c0.88,0,4.62,0.088,5.412-0.264c0.572-0.309,0.484-2.024,0.484-2.465c0-2.288-3.301-3.08-5.104-3.432
		c-4.665-0.969-11.178-1.232-11.266-7.613c-0.132-5.149,3.521-8.317,11.441-8.317h9.813c0,4.665-0.264,4.973-4.269,4.973h-5.721
		c-0.704,0-4.269-0.088-4.929,0.308c-0.616,0.352-0.44,2.376-0.44,2.816c0,0.836,0.616,1.585,2.288,2.113
		c5.193,1.628,14.038,1.1,14.038,8.713C175.605,103.047,172.789,107.227,163.988,107.227z"/>
	<path fill="#0061AF" d="M179.387,102.871V80.163c1.1,0,4.137-0.176,5.104,0.528c0.748,0.44,0.88,1.408,0.88,3.344v23.148
		C179.826,107.184,179.387,107.007,179.387,102.871z M200.466,107.139c-2.904-0.132-3.653-0.572-5.589-2.816l-8.273-9.373
		c-0.924-1.057-0.88-2.465,0-3.389l10.121-11.397h7.438l-12.189,13.026l12.806,13.994
		C201.742,107.184,201.39,107.184,200.466,107.139z"/>
	<path fill="#0061AF" d="M219.12,98.91v8.273c-1.188,0-4.313,0.22-5.368-0.572c-0.705-0.528-0.837-1.541-0.837-3.652V98.91
		l-10.693-18.835c3.74,0,5.061,0.088,5.897,0.484c1.231,0.528,1.804,1.98,2.376,3.037l5.545,10.649l5.853-10.649
		c1.98-3.564,1.849-3.521,8.317-3.521L219.12,98.91z"/>
	<path fill="#0061AF" d="M237.29,107.184c-4.269,0-5.017,0-5.017-4.225V80.163c1.188,0,4.137-0.22,5.148,0.572
		c0.66,0.528,0.792,1.584,0.792,3.696v17.91h6.073c2.112,0,3.124,0.133,3.652,0.66c0.836,0.793,0.66,3.169,0.66,4.182H237.29z"/>
	<path fill="#0061AF" d="M256.958,107.184c-1.1,0-3.477,0.176-4.444-0.572c-1.012-0.793-0.836-2.641-0.836-3.74V84.476
		c0-4.18,0.439-4.313,5.28-4.313h10.386c2.2,0,3.301,0.088,3.828,0.616c0.881,0.836,0.66,3.256,0.66,4.269h-14.258v5.94h8.537
		c2.156,0,3.213,0.088,3.741,0.617c0.88,0.836,0.659,3.212,0.659,4.225h-12.938v6.424h9.462c2.332,0,3.476,0.133,4.092,0.617
		c0.925,0.879,0.704,3.256,0.704,4.313H256.958z"/>
	<path fill="#0061AF" d="M298.672,107.184c-3.784,0-3.872-0.44-5.809-3.169l-10.87-16.106v19.275c-5.544,0-6.028-0.177-6.028-4.225
		V80.075h3.124c3.389,0,3.873-0.132,5.941,2.904l10.869,16.238V83.86c0-3.653,0.572-3.785,6.029-3.785v27.108H298.672z"/>
	<path fill="#0061AF" d="M316.401,107.227h-9.77c0-2.771,0.088-3.828,0.616-4.355c0.528-0.617,1.584-0.705,3.74-0.705h5.281
		c0.88,0,4.62,0.088,5.412-0.264c0.572-0.309,0.484-2.024,0.484-2.465c0-2.288-3.301-3.08-5.104-3.432
		c-4.665-0.969-11.178-1.232-11.266-7.613c-0.132-5.149,3.521-8.317,11.441-8.317h9.813c0,4.665-0.264,4.973-4.269,4.973h-5.721
		c-0.704,0-4.269-0.088-4.929,0.308c-0.616,0.352-0.44,2.376-0.44,2.816c0,0.836,0.616,1.585,2.288,2.113
		c5.193,1.628,14.038,1.1,14.038,8.713C328.019,103.047,325.202,107.227,316.401,107.227z"/>
</g>
<g>
	<path fill="#0061AF" d="M156.052,113.355h11.4c0,1.045,0,1.479-0.029,1.828c-0.029,0.377-0.116,0.725-0.377,0.986
		c-0.349,0.348-1.045,0.406-2.437,0.406h-2.233v14.59c-3.626,0-3.858-0.116-3.858-2.785v-11.805h-5.163
		C153.354,113.588,153.528,113.355,156.052,113.355z"/>
	<path fill="#0061AF" d="M172.873,131.166c-0.726,0-2.292,0.116-2.93-0.377c-0.668-0.522-0.552-1.74-0.552-2.466v-12.125
		c0-2.755,0.29-2.843,3.481-2.843h6.846c1.45,0,2.175,0.059,2.523,0.406c0.58,0.551,0.435,2.146,0.435,2.814h-9.398v3.915h5.628
		c1.421,0,2.117,0.058,2.466,0.406c0.58,0.552,0.435,2.118,0.435,2.784h-8.528v4.235h6.237c1.537,0,2.291,0.087,2.697,0.406
		c0.609,0.58,0.464,2.146,0.464,2.843H172.873z"/>
	<path fill="#0061AF" d="M192.942,131.225c-6.991,0-8.645-4.207-8.645-8.964c0-4.786,1.683-8.963,8.645-8.963h5.859
		c0,0.667,0.145,2.263-0.377,2.843c-0.349,0.348-1.045,0.406-2.408,0.406h-3.074c-0.783,0-3.481-0.174-4.09,0.551
		c-0.696,0.813-0.552,4.264-0.552,5.163c0,3.452,0.813,5.714,4.642,5.714h2.9c2.784,0,2.987,0.175,2.987,3.25H192.942z"/>
	<path fill="#0061AF" d="M215.041,131.137c-1.799-0.174-1.683-1.247-1.683-2.784v-4.671h-7.86v7.484
		c-3.685,0-3.975-0.116-3.975-2.813v-14.997c3.655,0,3.945,0.088,3.945,2.785v4.351h7.86v-7.136c3.685,0,4.003,0.088,4.003,2.785
		v15.025C216.085,131.166,215.476,131.166,215.041,131.137z"/>
	<path fill="#0061AF" d="M235.805,131.166c-2.494,0-2.552-0.29-3.828-2.088l-7.165-10.617v12.705c-3.655,0-3.974-0.116-3.974-2.785
		v-15.083h2.06c2.233,0,2.552-0.087,3.915,1.915l7.165,10.703v-10.123c0-2.408,0.377-2.495,3.974-2.495v17.868H235.805z"/>
	<path fill="#0061AF" d="M249.665,131.369c-7.194,0-8.935-4.352-8.935-9.108c0-4.786,1.77-9.138,8.935-9.138
		c7.252,0,8.963,4.352,8.963,9.167C258.628,127.018,256.917,131.369,249.665,131.369z M254.654,122.29
		c0-3.481-0.87-5.889-4.989-5.889c-4.96,0-4.932,0.029-4.932,5.859c0,3.452,0.899,5.831,4.932,5.831c5.019,0,4.96-0.029,4.96-5.802
		H254.654z"/>
	<path fill="#0061AF" d="M264.772,131.166c-2.813,0-3.307,0-3.307-2.785v-15.025c0.783,0,2.727-0.145,3.394,0.377
		c0.435,0.349,0.522,1.045,0.522,2.438v11.805h4.003c1.392,0,2.059,0.088,2.407,0.436c0.551,0.522,0.435,2.089,0.435,2.756H264.772z
		"/>
	<path fill="#0061AF" d="M281.274,131.369c-7.194,0-8.935-4.352-8.935-9.108c0-4.786,1.77-9.138,8.935-9.138
		c7.252,0,8.963,4.352,8.963,9.167C290.237,127.018,288.526,131.369,281.274,131.369z M286.264,122.29
		c0-3.481-0.87-5.889-4.989-5.889c-4.96,0-4.932,0.029-4.932,5.859c0,3.452,0.899,5.831,4.932,5.831c5.019,0,4.96-0.029,4.96-5.802
		H286.264z"/>
	<path fill="#0061AF" d="M306.216,129.396c-1.16,1.219-2.813,1.973-5.309,1.973c-6.555,0-8.47-4.352-8.47-9.108
		c0-4.786,1.683-8.905,8.645-8.905h7.28c0,0.609,0.174,2.205-0.406,2.814c-0.348,0.348-1.044,0.406-2.437,0.406h-4.438
		c-0.783,0-3.481-0.175-4.09,0.551c-0.696,0.813-0.552,4.234-0.552,5.134c0,3.452,0.929,5.889,4.642,5.889
		c4.583,0,4.583-0.058,4.583-4.438h-4.583c-2.176,0-2.321-0.261-2.321-3.19h10.82v10.646
		C306.825,131.166,306.303,131.021,306.216,129.396z"/>
	<path fill="#0061AF" d="M320.976,125.713v5.453c-0.783,0-2.843,0.145-3.539-0.377c-0.464-0.348-0.551-1.016-0.551-2.408v-2.668
		l-7.049-12.415c2.466,0,3.336,0.058,3.887,0.319c0.813,0.348,1.189,1.305,1.566,2.001l3.655,7.021l3.857-7.021
		c1.306-2.35,1.219-2.32,5.482-2.32L320.976,125.713z"/>
</g>
<g>
</g>
<g>
</g>
<g>
</g>
<g>
</g>
<g>
</g>
<g>
</g>
</svg>
